<?xml version="1.0" standalone="no"?><!DOCTYPE svg PUBLIC "-//W3C//DTD SVG 1.1//EN" "http://www.w3.org/Graphics/SVG/1.1/DTD/svg11.dtd"><svg height="1024" node-id="1" sillyvg="true" template-height="1024" template-width="1024" version="1.1" viewBox="0 0 1024 1024" width="1024" xmlns="http://www.w3.org/2000/svg" xmlns:xlink="http://www.w3.org/1999/xlink"><defs node-id="16"></defs><path d="M 0.00 0.00 L 1024.00 0.00 L 1024.00 1024.00 L 0.00 1024.00 Z" fill="#a2b029" fill-rule="nonzero" node-id="18" stroke="none" target-height="1024" target-width="1024" target-x="0" target-y="0"></path><path d="M 180.20 135.20 L 183.40 128.30 L 186.90 121.50 L 190.90 114.90 L 195.30 108.50 L 200.00 102.40 L 205.20 96.70 L 209.40 92.70 L 218.40 85.70 L 223.20 82.60 L 228.20 79.90 L 233.40 77.70 L 238.90 75.80 L 244.60 74.40 L 254.00 72.90 L 259.00 72.70 L 263.90 73.00 L 268.70 73.60 L 273.40 74.70 L 278.00 76.30 L 282.30 78.30 L 286.30 80.80 L 291.70 85.60 L 296.00 91.60 L 299.70 99.50 L 302.70 109.90 L 303.90 116.30 L 306.60 135.80 L 309.30 148.60 L 311.40 154.80 L 318.30 171.40 L 322.20 179.60 L 326.50 187.40 L 329.80 192.40 L 333.40 197.20 L 337.40 201.70 L 340.10 204.00 L 342.90 205.80 L 345.90 207.00 L 352.20 208.30 L 360.60 208.30 L 375.50 206.20 L 393.10 203.00 L 410.70 200.20 L 428.30 197.90 L 446.00 196.10 L 463.80 194.80 L 481.60 193.90 L 499.40 193.40 L 517.20 193.50 L 535.00 194.00 L 552.70 195.00 L 570.50 196.40 L 588.20 198.30 L 605.80 200.70 L 623.40 203.60 L 646.90 208.10 L 653.10 209.00 L 657.30 209.40 L 665.60 209.20 L 669.60 208.60 L 673.40 207.60 L 677.10 206.10 L 682.10 202.90 L 686.60 198.10 L 691.60 190.80 L 696.10 183.40 L 700.10 175.70 L 703.70 167.90 L 709.90 151.70 L 713.70 139.20 L 717.00 126.50 L 722.50 101.10 L 724.30 96.50 L 726.40 92.40 L 729.00 88.80 L 731.90 85.50 L 735.10 82.50 L 738.70 80.00 L 742.50 77.80 L 746.50 75.90 L 755.10 73.30 L 764.20 72.10 L 770.40 72.10 L 776.40 72.60 L 782.50 73.80 L 786.90 75.10 L 795.20 78.50 L 803.90 83.80 L 812.70 90.70 L 816.70 94.50 L 821.70 100.10 L 826.30 105.90 L 830.50 112.20 L 834.20 118.70 L 837.60 125.40 L 840.60 132.30 L 843.30 139.40 L 847.50 153.70 L 853.00 178.90 L 855.20 191.60 L 857.90 210.80 L 861.80 249.30 L 866.40 307.30 L 868.60 356.60 L 870.10 405.90 L 870.70 438.80 L 870.80 504.60 L 870.20 537.50 L 869.10 570.30 L 867.50 603.20 L 866.00 618.80 L 862.30 638.00 L 853.90 672.30 L 861.90 680.10 L 870.30 687.50 L 905.30 715.40 L 913.90 722.60 L 922.20 730.10 L 932.60 740.80 L 941.30 750.90 L 945.00 755.60 L 948.50 760.70 L 951.60 766.00 L 954.30 771.50 L 956.60 777.20 L 958.50 783.10 L 959.80 788.90 L 960.50 794.80 L 960.70 799.30 L 960.50 803.70 L 958.90 812.30 L 957.50 816.40 L 955.60 820.50 L 953.20 824.40 L 947.50 831.80 L 944.40 834.70 L 941.20 837.10 L 937.60 839.10 L 930.00 842.10 L 924.00 843.60 L 917.70 844.50 L 911.40 845.10 L 885.50 846.60 L 878.50 847.30 L 871.60 848.50 L 861.30 850.70 L 851.10 853.60 L 820.80 863.10 L 807.20 866.80 L 804.10 867.90 L 801.50 869.40 L 799.10 871.20 L 795.00 875.70 L 792.50 879.50 L 783.60 897.00 L 781.10 901.10 L 779.20 903.70 L 774.70 908.10 L 768.50 913.20 L 762.20 917.80 L 755.60 922.00 L 748.80 925.80 L 741.80 929.20 L 727.30 934.80 L 719.80 937.10 L 709.60 939.60 L 699.30 941.50 L 688.90 942.90 L 678.30 943.70 L 667.80 944.10 L 657.30 944.00 L 646.80 943.50 L 636.40 942.60 L 626.20 941.40 L 620.40 940.30 L 614.70 939.80 L 609.00 939.90 L 597.60 941.10 L 566.50 947.60 L 558.00 948.90 L 543.50 950.40 L 529.00 951.40 L 514.40 951.90 L 499.80 951.90 L 485.20 951.30 L 470.70 950.20 L 449.00 947.30 L 438.30 945.30 L 422.80 941.90 L 418.00 941.30 L 413.20 941.00 L 406.10 941.10 L 377.20 944.00 L 370.00 944.40 L 350.80 944.40 L 331.30 943.00 L 321.70 941.60 L 312.20 939.90 L 302.70 937.60 L 293.50 934.90 L 284.40 931.60 L 271.20 925.60 L 258.70 918.20 L 250.90 912.30 L 244.30 905.30 L 240.50 900.20 L 237.00 894.80 L 233.80 889.20 L 229.60 880.40 L 225.70 871.60 L 215.50 869.50 L 205.40 866.80 L 165.60 854.00 L 155.60 851.10 L 145.50 848.70 L 131.70 846.60 L 107.80 844.30 L 102.10 843.40 L 96.60 842.20 L 91.30 840.40 L 88.00 838.80 L 84.70 836.90 L 81.60 834.50 L 75.50 828.50 L 70.70 821.60 L 68.20 816.50 L 66.30 811.30 L 64.90 805.70 L 64.20 800.10 L 64.00 794.50 L 64.40 788.80 L 65.40 783.20 L 67.10 777.80 L 69.30 772.60 L 73.70 764.30 L 78.50 756.50 L 83.90 749.10 L 89.60 742.00 L 95.70 735.30 L 102.20 728.70 L 112.30 719.40 L 154.60 683.80 L 164.80 674.70 L 164.30 667.00 L 163.20 659.40 L 156.80 629.20 L 155.40 621.60 L 154.50 613.90 L 152.60 586.50 L 151.10 559.10 L 149.20 504.30 L 148.80 467.70 L 148.90 431.20 L 149.60 394.60 L 150.70 358.00 L 152.30 321.40 L 154.30 284.90 L 159.60 227.90 L 161.90 209.00 L 163.80 196.40 L 166.10 183.90 L 168.80 171.60 L 172.00 159.30 L 175.80 147.20 L 180.20 135.20 Z M 229.80 148.50 L 225.80 157.00 L 222.40 165.60 L 219.50 174.30 L 214.80 192.00 L 213.00 201.10 L 210.70 214.70 L 208.90 228.50 L 203.40 283.70 L 201.10 336.10 L 199.30 388.50 L 198.00 441.00 L 197.20 493.40 L 198.00 512.00 L 199.30 568.00 L 200.20 586.60 L 201.70 605.20 L 203.10 617.50 L 205.10 629.70 L 207.50 641.90 L 210.20 647.90 L 213.30 653.50 L 217.00 658.70 L 221.10 663.60 L 230.10 672.80 L 244.70 685.50 L 216.70 701.10 L 203.00 709.40 L 189.50 718.00 L 172.20 730.50 L 155.50 744.10 L 138.90 758.90 L 131.10 766.80 L 126.20 772.30 L 117.30 784.00 L 113.40 790.20 L 110.00 796.70 L 107.00 803.60 L 116.50 804.40 L 145.10 805.90 L 154.50 806.70 L 163.90 807.90 L 176.30 810.50 L 207.80 820.00 L 220.70 823.20 L 233.60 825.90 L 242.30 827.30 L 259.90 829.10 L 261.80 837.10 L 264.20 845.00 L 268.40 855.30 L 273.90 864.80 L 277.10 869.20 L 280.70 873.20 L 284.70 876.90 L 289.10 880.20 L 294.00 883.20 L 300.00 886.20 L 306.10 888.90 L 318.40 893.00 L 326.90 895.00 L 335.40 896.40 L 344.10 897.20 L 352.80 897.60 L 361.50 897.50 L 370.40 897.10 L 383.50 895.80 L 396.60 893.90 L 422.30 889.00 L 433.40 892.60 L 444.60 895.70 L 456.00 898.30 L 467.50 900.30 L 479.00 901.80 L 490.70 902.80 L 502.30 903.20 L 514.00 903.20 L 525.70 902.70 L 537.40 901.70 L 549.00 900.30 L 560.50 898.30 L 572.00 895.90 L 583.30 893.10 L 594.50 889.80 L 605.50 886.10 L 614.80 889.50 L 624.50 892.30 L 634.30 894.70 L 644.20 896.40 L 654.20 897.60 L 664.30 898.20 L 679.40 897.80 L 694.30 895.80 L 701.70 894.30 L 708.90 892.30 L 716.00 889.80 L 723.10 887.00 L 727.20 884.90 L 734.70 879.90 L 738.10 877.00 L 742.20 872.80 L 745.90 868.20 L 749.20 863.20 L 752.10 858.00 L 754.60 852.60 L 756.70 846.90 L 758.40 841.10 L 760.60 829.30 L 772.30 827.80 L 784.00 825.80 L 795.60 823.30 L 818.40 817.10 L 836.60 811.10 L 843.60 809.30 L 850.60 807.90 L 861.30 806.50 L 872.20 805.70 L 915.50 804.40 L 914.20 799.70 L 910.50 791.10 L 904.80 781.80 L 900.90 776.90 L 896.80 772.10 L 890.10 765.40 L 872.30 749.70 L 849.90 731.70 L 838.30 723.10 L 826.50 714.90 L 814.40 707.10 L 802.10 699.70 L 789.50 692.80 L 776.60 686.30 L 795.40 669.60 L 801.20 663.50 L 804.80 659.30 L 808.10 654.80 L 810.90 650.10 L 813.30 645.20 L 815.10 639.90 L 816.40 634.30 L 818.50 618.70 L 820.20 603.10 L 821.30 587.50 L 822.40 564.00 L 823.00 540.40 L 823.30 493.30 L 821.20 387.20 L 820.00 351.90 L 818.30 316.50 L 816.00 281.20 L 814.00 257.70 L 809.00 210.90 L 805.20 190.70 L 802.90 180.40 L 800.20 170.20 L 798.10 163.50 L 792.70 150.90 L 789.50 144.90 L 785.70 139.20 L 781.50 134.00 L 778.00 130.30 L 774.10 127.00 L 769.90 123.80 L 765.20 121.00 L 760.60 140.50 L 755.40 159.90 L 749.70 179.20 L 743.50 198.30 L 736.70 217.30 L 729.50 236.00 L 721.70 254.50 L 713.30 272.80 L 700.80 268.40 L 688.20 264.40 L 675.50 260.80 L 662.70 257.70 L 645.50 254.00 L 628.20 250.80 L 610.80 248.20 L 593.30 245.90 L 558.30 242.40 L 537.10 241.60 L 515.90 241.20 L 494.60 241.20 L 473.30 241.80 L 452.10 242.90 L 431.00 244.60 L 415.10 246.40 L 399.40 248.60 L 383.70 251.20 L 368.10 254.30 L 352.60 257.90 L 337.20 262.00 L 322.00 266.60 L 306.80 271.80 L 296.60 247.60 L 286.80 223.10 L 280.60 206.60 L 274.90 190.00 L 265.80 160.60 L 259.60 135.00 L 257.00 122.10 L 246.30 129.30 L 241.30 133.40 L 236.80 137.80 L 234.10 141.10 L 231.80 144.60 L 229.80 148.50 Z" fill="#fefefd" fill-rule="nonzero" node-id="20" stroke="none" target-height="879.80005" target-width="896.7" target-x="64" target-y="72.1"></path><path d="M 229.80 148.50 L 231.80 144.60 L 234.10 141.10 L 236.80 137.80 L 241.30 133.40 L 246.30 129.30 L 257.00 122.10 L 259.60 135.00 L 265.80 160.60 L 274.90 190.00 L 280.60 206.60 L 286.80 223.10 L 296.60 247.50 L 306.80 271.80 L 322.00 266.60 L 337.20 262.00 L 352.60 257.90 L 368.10 254.30 L 383.70 251.20 L 399.40 248.60 L 415.10 246.40 L 431.00 244.60 L 452.10 242.90 L 473.30 241.80 L 494.60 241.20 L 515.90 241.20 L 537.10 241.60 L 558.30 242.40 L 593.30 245.90 L 610.80 248.20 L 628.20 250.80 L 645.50 254.00 L 662.70 257.70 L 675.50 260.80 L 688.20 264.40 L 700.80 268.40 L 713.30 272.80 L 721.70 254.50 L 729.50 236.00 L 736.70 217.30 L 743.50 198.30 L 749.70 179.20 L 755.40 159.90 L 760.60 140.50 L 765.20 121.00 L 769.90 123.80 L 774.10 127.00 L 778.00 130.30 L 781.50 134.00 L 785.70 139.20 L 789.50 144.90 L 792.70 150.90 L 795.60 157.10 L 800.20 170.20 L 802.90 180.40 L 805.20 190.70 L 809.00 210.90 L 811.70 234.30 L 816.00 281.20 L 818.30 316.50 L 820.00 351.90 L 822.10 422.60 L 823.30 493.30 L 823.00 540.40 L 822.40 564.00 L 821.30 587.50 L 820.20 603.10 L 818.50 618.70 L 816.40 634.30 L 815.10 639.90 L 813.30 645.20 L 810.90 650.10 L 808.10 654.80 L 804.80 659.30 L 801.20 663.50 L 795.40 669.60 L 789.20 675.30 L 776.60 686.30 L 764.70 680.10 L 770.80 676.10 L 776.60 671.70 L 782.20 667.10 L 798.20 652.20 L 786.90 648.80 L 787.30 641.50 L 804.40 642.90 L 806.70 628.20 L 810.20 598.50 L 811.40 583.70 L 812.60 563.80 L 813.20 543.90 L 813.50 524.00 L 813.40 494.10 L 811.60 404.50 L 809.80 341.10 L 807.60 298.80 L 802.50 241.20 L 801.10 228.90 L 797.40 204.70 L 794.90 192.70 L 791.90 180.90 L 788.40 169.20 L 785.30 160.60 L 781.80 152.20 L 777.90 143.80 L 773.50 135.60 L 748.00 215.70 L 738.40 242.10 L 729.50 262.70 L 725.80 269.80 L 723.60 273.40 L 721.20 276.60 L 717.30 280.10 L 714.90 281.50 L 700.50 278.70 L 661.60 267.60 L 650.90 265.10 L 633.50 261.80 L 616.10 258.80 L 598.60 256.30 L 581.10 254.30 L 563.50 252.70 L 545.80 251.50 L 528.20 250.70 L 510.60 250.40 L 492.90 250.60 L 475.20 251.20 L 457.60 252.20 L 440.00 253.70 L 422.50 255.60 L 405.00 257.90 L 387.50 260.70 L 370.20 264.00 L 352.90 267.70 L 335.80 271.80 L 318.70 276.50 L 301.80 281.50 L 295.80 269.90 L 290.20 258.20 L 285.10 246.30 L 278.10 228.20 L 271.60 209.90 L 253.50 154.30 L 247.20 135.90 L 242.50 145.00 L 238.20 154.30 L 234.40 163.70 L 231.00 173.40 L 225.40 192.90 L 221.30 213.00 L 219.20 226.40 L 217.50 239.90 L 216.20 253.50 L 213.90 284.10 L 212.10 314.80 L 210.70 345.50 L 209.00 406.90 L 208.50 483.80 L 208.80 529.90 L 210.30 579.50 L 212.40 607.00 L 215.40 628.90 L 207.50 641.90 L 205.10 629.70 L 203.10 617.50 L 201.70 605.20 L 200.20 586.60 L 199.30 568.00 L 198.00 512.00 L 197.20 493.40 L 198.00 441.00 L 199.30 388.50 L 201.10 336.10 L 203.40 283.70 L 208.90 228.50 L 210.70 214.70 L 213.00 201.10 L 214.80 192.00 L 219.50 174.30 L 222.40 165.60 L 225.80 157.00 L 229.80 148.50 Z" fill="#05050a" fill-rule="nonzero" node-id="22" stroke="none" target-height="565.3" target-width="626.1" target-x="197.2" target-y="121"></path><path d="M 247.20 135.90 L 253.50 154.30 L 271.60 209.90 L 278.10 228.20 L 285.10 246.30 L 290.20 258.20 L 295.80 269.90 L 301.80 281.50 L 318.70 276.50 L 335.80 271.80 L 352.90 267.70 L 370.20 264.00 L 387.50 260.70 L 405.00 257.90 L 422.50 255.60 L 440.00 253.70 L 457.60 252.20 L 475.20 251.20 L 492.90 250.60 L 510.60 250.40 L 528.20 250.70 L 545.80 251.50 L 563.50 252.70 L 581.10 254.30 L 598.60 256.30 L 616.10 258.80 L 633.50 261.80 L 650.90 265.10 L 661.60 267.60 L 700.50 278.70 L 714.90 281.50 L 717.30 280.10 L 721.20 276.60 L 723.60 273.40 L 725.80 269.80 L 729.50 262.70 L 738.40 242.10 L 748.00 215.70 L 773.50 135.60 L 777.90 143.80 L 781.80 152.20 L 785.30 160.60 L 788.40 169.20 L 791.90 180.90 L 794.90 192.70 L 797.40 204.70 L 801.10 228.90 L 802.50 241.20 L 807.60 298.80 L 808.90 319.90 L 810.50 362.20 L 812.90 464.20 L 813.40 494.10 L 813.50 524.00 L 813.30 543.90 L 812.60 563.80 L 811.40 583.70 L 810.20 598.50 L 806.70 628.20 L 804.40 642.90 L 787.30 641.50 L 788.20 627.40 L 788.50 613.30 L 788.40 599.20 L 786.80 571.10 L 785.50 557.00 L 783.20 536.00 L 774.70 473.00 L 768.80 437.90 L 766.20 426.40 L 764.10 418.80 L 761.50 411.30 L 756.10 398.80 L 750.10 388.60 L 746.60 383.70 L 737.90 373.30 L 733.10 368.20 L 728.00 363.40 L 722.70 359.00 L 717.10 355.00 L 711.30 351.40 L 705.20 348.30 L 698.80 345.80 L 694.00 344.40 L 689.00 343.40 L 683.80 342.80 L 674.00 342.80 L 669.30 343.50 L 666.20 344.30 L 660.80 347.00 L 658.50 348.80 L 656.60 351.20 L 655.00 354.00 L 652.30 364.80 L 650.80 378.60 L 650.00 403.60 L 578.40 409.20 L 554.50 410.70 L 530.60 411.70 L 506.70 412.00 L 490.80 411.90 L 474.80 411.20 L 415.00 407.20 L 371.20 403.60 L 370.40 397.70 L 369.20 372.10 L 368.20 365.90 L 367.20 361.90 L 365.90 358.10 L 364.10 354.60 L 361.90 351.30 L 359.10 348.30 L 355.70 345.60 L 350.70 344.10 L 345.80 343.20 L 340.90 342.90 L 336.00 343.00 L 331.10 343.60 L 321.60 346.00 L 316.80 347.80 L 310.80 350.70 L 304.90 354.00 L 299.30 357.80 L 293.90 361.90 L 288.90 366.20 L 279.90 375.30 L 272.40 384.80 L 269.10 389.90 L 265.20 396.80 L 261.70 404.00 L 258.60 411.50 L 253.60 426.80 L 251.50 434.70 L 248.90 446.70 L 246.70 458.70 L 242.90 482.60 L 235.40 541.60 L 233.10 561.30 L 231.30 581.10 L 230.10 600.80 L 229.70 614.00 L 229.80 627.30 L 230.30 640.50 L 218.20 644.80 L 213.70 618.00 L 211.40 596.10 L 210.30 579.50 L 209.60 563.00 L 208.80 529.90 L 208.50 483.80 L 209.00 406.90 L 210.70 345.50 L 212.10 314.80 L 213.90 284.10 L 217.50 239.90 L 219.20 226.40 L 223.20 202.90 L 228.10 183.10 L 231.00 173.40 L 234.40 163.70 L 238.20 154.30 L 242.50 145.00 L 247.20 135.90 Z" fill="#293c61" fill-rule="nonzero" node-id="24" stroke="none" target-height="509.19998" target-width="605" target-x="208.5" target-y="135.6"></path><path d="M 284.20 370.80 L 293.90 361.90 L 299.30 357.80 L 304.90 354.00 L 310.80 350.70 L 316.80 347.80 L 321.60 346.00 L 331.10 343.60 L 336.00 343.00 L 340.90 342.90 L 345.80 343.20 L 350.70 344.10 L 355.70 345.60 L 359.10 348.30 L 361.90 351.30 L 364.10 354.60 L 365.90 358.10 L 367.20 361.90 L 368.20 365.90 L 369.20 372.10 L 370.40 397.70 L 371.20 403.60 L 415.00 407.20 L 474.80 411.20 L 490.80 411.90 L 506.70 412.00 L 530.60 411.70 L 554.50 410.70 L 578.40 409.20 L 650.00 403.60 L 650.80 378.60 L 652.30 364.80 L 655.00 354.00 L 656.60 351.20 L 658.50 348.80 L 660.80 347.00 L 663.40 345.40 L 669.30 343.50 L 674.00 342.80 L 683.80 342.80 L 689.00 343.40 L 694.00 344.40 L 698.80 345.80 L 705.20 348.30 L 711.30 351.40 L 717.10 355.00 L 722.70 359.00 L 728.00 363.40 L 737.90 373.30 L 746.60 383.70 L 753.30 393.60 L 758.60 404.10 L 761.50 411.30 L 764.10 418.80 L 766.20 426.40 L 768.80 437.90 L 771.00 449.60 L 774.70 473.00 L 783.20 536.00 L 785.50 557.00 L 786.80 571.10 L 788.40 599.20 L 788.50 613.30 L 788.20 627.40 L 786.90 648.80 L 767.10 643.40 L 747.30 638.50 L 727.30 634.00 L 707.20 630.00 L 680.40 625.30 L 653.40 621.30 L 626.30 617.80 L 599.10 614.90 L 571.90 612.30 L 544.70 610.20 L 549.60 623.80 L 545.60 627.80 L 541.30 631.20 L 536.70 634.20 L 531.80 636.80 L 526.80 638.70 L 521.50 640.20 L 516.20 641.10 L 510.80 641.30 L 505.40 640.90 L 501.40 640.20 L 497.40 639.10 L 493.50 637.50 L 487.30 634.30 L 483.60 631.20 L 481.50 628.30 L 479.90 625.00 L 477.70 617.90 L 476.00 610.70 L 444.00 613.20 L 412.00 616.20 L 369.40 621.20 L 348.10 624.30 L 327.00 627.70 L 305.90 631.70 L 284.90 636.10 L 269.30 639.80 L 238.30 648.30 L 222.90 653.10 L 232.70 662.70 L 243.20 670.90 L 250.60 675.80 L 258.40 680.30 L 266.30 684.30 L 282.90 691.20 L 291.40 694.10 L 304.30 698.00 L 317.50 701.50 L 343.60 707.30 L 366.20 711.40 L 388.80 714.80 L 411.40 717.60 L 434.20 719.80 L 457.00 721.40 L 479.90 722.40 L 502.70 722.90 L 525.60 722.70 L 548.50 722.00 L 571.30 720.80 L 594.10 719.00 L 616.80 716.60 L 654.60 711.10 L 673.50 707.80 L 692.20 704.00 L 716.90 697.70 L 729.10 694.00 L 741.10 689.90 L 753.00 685.20 L 764.70 680.10 L 789.50 692.80 L 802.10 699.70 L 814.40 707.10 L 826.50 714.90 L 838.30 723.10 L 849.90 731.70 L 872.30 749.70 L 890.10 765.40 L 896.80 772.10 L 900.90 776.90 L 904.80 781.80 L 910.50 791.10 L 914.20 799.70 L 915.50 804.40 L 872.20 805.70 L 861.30 806.50 L 850.60 807.90 L 843.60 809.30 L 836.60 811.10 L 818.40 817.10 L 807.00 820.40 L 795.60 823.30 L 784.00 825.80 L 772.30 827.80 L 760.60 829.30 L 758.40 841.10 L 756.70 846.90 L 754.60 852.60 L 752.10 858.00 L 749.20 863.20 L 745.90 868.20 L 742.20 872.80 L 738.10 877.00 L 734.70 879.90 L 727.20 884.90 L 723.10 887.00 L 716.00 889.80 L 708.90 892.30 L 701.70 894.30 L 694.30 895.80 L 679.40 897.80 L 664.30 898.20 L 654.20 897.60 L 644.20 896.40 L 634.30 894.70 L 624.50 892.30 L 614.80 889.50 L 605.50 886.10 L 594.50 889.80 L 583.30 893.10 L 572.00 895.90 L 560.50 898.30 L 549.00 900.30 L 537.40 901.70 L 525.70 902.70 L 514.00 903.20 L 502.30 903.20 L 490.70 902.80 L 479.00 901.80 L 467.50 900.30 L 456.00 898.30 L 444.60 895.70 L 433.40 892.60 L 422.30 889.00 L 396.60 893.90 L 383.50 895.80 L 370.40 897.10 L 361.50 897.50 L 352.80 897.60 L 344.10 897.20 L 335.40 896.40 L 326.90 895.00 L 318.40 893.00 L 306.10 888.90 L 294.00 883.20 L 289.10 880.20 L 284.70 876.90 L 280.70 873.20 L 277.10 869.20 L 273.90 864.80 L 268.40 855.30 L 264.20 845.00 L 261.80 837.10 L 259.90 829.10 L 242.30 827.30 L 233.60 825.90 L 220.70 823.20 L 207.80 820.00 L 176.30 810.50 L 163.90 807.90 L 154.50 806.70 L 145.10 805.90 L 116.50 804.40 L 107.00 803.60 L 110.00 796.70 L 113.40 790.20 L 117.30 784.00 L 126.20 772.30 L 131.10 766.80 L 138.90 758.90 L 155.50 744.10 L 172.20 730.50 L 189.50 718.00 L 203.00 709.40 L 216.70 701.10 L 244.70 685.50 L 230.10 672.80 L 221.10 663.60 L 217.00 658.70 L 213.30 653.50 L 210.20 647.90 L 207.50 641.90 L 215.40 628.90 L 218.20 644.80 L 230.30 640.50 L 229.80 627.30 L 229.70 614.00 L 230.10 600.80 L 231.30 581.10 L 233.10 561.30 L 242.90 482.60 L 246.70 458.70 L 248.90 446.70 L 253.60 426.80 L 258.60 411.50 L 261.70 404.00 L 265.20 396.80 L 269.10 389.90 L 272.40 384.80 L 279.90 375.30 L 284.20 370.80 Z M 302.00 529.80 L 299.30 532.40 L 295.00 538.10 L 293.40 541.20 L 291.80 545.50 L 290.70 550.00 L 290.30 554.60 L 290.40 559.20 L 291.00 563.80 L 292.10 568.30 L 293.80 572.70 L 296.00 576.80 L 298.60 580.70 L 301.70 584.20 L 305.20 587.30 L 309.20 590.00 L 313.90 592.50 L 318.70 594.60 L 323.60 596.30 L 328.70 597.50 L 333.90 598.40 L 344.30 599.10 L 354.70 598.20 L 364.90 595.90 L 369.90 594.20 L 379.40 589.80 L 388.10 584.00 L 392.10 580.70 L 395.80 577.00 L 399.20 573.00 L 402.40 568.70 L 395.20 554.80 L 390.10 557.90 L 385.00 560.30 L 379.70 562.20 L 375.60 563.20 L 371.50 563.70 L 367.40 563.80 L 363.30 563.40 L 359.30 562.60 L 355.40 561.30 L 351.50 559.40 L 347.60 556.90 L 347.20 551.30 L 347.60 540.30 L 348.40 534.90 L 349.70 529.60 L 351.40 524.30 L 345.10 522.30 L 334.10 519.70 L 325.30 519.10 L 320.90 519.40 L 316.80 520.20 L 312.70 521.60 L 309.90 523.00 L 307.20 524.80 L 304.50 527.00 L 302.00 529.80 Z M 676.80 524.30 L 680.20 538.90 L 680.70 543.90 L 680.60 547.30 L 680.20 550.40 L 679.30 553.40 L 676.90 557.40 L 675.20 559.30 L 673.00 561.00 L 669.60 563.10 L 666.30 564.40 L 663.00 565.00 L 659.50 565.20 L 656.10 564.80 L 652.60 564.00 L 647.60 562.20 L 642.70 559.70 L 633.80 553.70 L 621.00 570.40 L 624.90 575.20 L 629.20 579.50 L 633.70 583.30 L 638.60 586.60 L 643.70 589.50 L 649.10 592.00 L 654.60 594.00 L 660.30 595.70 L 666.20 596.90 L 672.10 597.70 L 678.00 598.10 L 684.10 598.10 L 696.00 597.00 L 707.60 594.40 L 714.70 590.80 L 721.10 586.00 L 724.80 582.20 L 728.10 578.00 L 730.90 573.40 L 733.20 568.60 L 734.80 563.60 L 735.90 558.50 L 736.20 554.60 L 736.20 550.80 L 735.70 547.00 L 734.80 543.30 L 733.40 539.70 L 731.60 536.20 L 729.30 532.80 L 723.90 526.70 L 721.30 524.30 L 718.60 522.50 L 715.70 521.00 L 711.70 519.70 L 707.50 518.80 L 703.10 518.60 L 694.20 519.40 L 683.10 522.10 L 676.80 524.30 Z M 476.80 611.50 L 486.10 621.90 L 489.50 625.10 L 494.40 628.80 L 499.90 631.30 L 502.90 631.90 L 510.00 632.60 L 513.60 632.60 L 517.20 632.20 L 524.20 630.20 L 532.50 626.40 L 547.00 618.20 L 542.80 615.60 L 538.50 613.60 L 534.10 612.10 L 524.90 610.40 L 513.00 610.00 L 491.00 611.40 L 483.80 611.60 L 476.80 611.50 Z M 337.90 722.30 L 327.90 731.40 L 318.10 741.00 L 311.90 747.60 L 300.20 761.50 L 294.70 768.80 L 289.60 776.20 L 284.80 784.00 L 283.00 787.40 L 281.70 790.90 L 280.80 794.40 L 280.30 798.00 L 280.30 802.80 L 280.90 807.60 L 282.10 812.40 L 283.80 817.00 L 286.10 821.40 L 288.80 825.60 L 292.00 829.50 L 295.40 833.00 L 303.50 839.70 L 308.00 842.90 L 312.70 845.60 L 317.60 848.00 L 324.30 850.60 L 331.30 852.60 L 338.50 854.20 L 345.80 855.30 L 360.40 856.40 L 364.10 828.70 L 348.10 822.00 L 340.20 818.30 L 332.60 814.10 L 327.80 811.00 L 318.60 804.10 L 314.50 800.10 L 310.60 795.80 L 306.90 791.10 L 325.40 802.20 L 334.80 807.40 L 344.30 812.20 L 354.10 816.60 L 364.10 820.40 L 366.20 811.90 L 371.30 795.30 L 374.50 787.30 L 379.10 776.70 L 384.30 766.40 L 389.90 756.30 L 402.30 736.80 L 409.00 727.30 L 372.40 720.50 L 360.10 718.80 L 351.30 717.90 L 345.50 718.20 L 342.80 718.90 L 339.50 720.80 L 337.90 722.30 Z M 609.80 726.90 L 619.60 741.60 L 629.00 756.60 L 634.90 766.80 L 640.40 777.20 L 645.40 787.90 L 648.90 796.00 L 654.70 812.70 L 657.10 821.30 L 666.70 816.60 L 676.00 811.50 L 685.00 805.90 L 702.50 793.90 L 711.00 787.60 L 708.20 792.30 L 705.20 796.60 L 701.90 800.60 L 694.40 807.90 L 683.80 815.60 L 677.10 819.80 L 661.00 828.70 L 659.50 830.10 L 658.50 831.70 L 657.60 835.40 L 657.60 837.60 L 658.10 840.80 L 660.90 851.00 L 661.60 854.30 L 661.80 857.30 L 668.60 856.50 L 682.10 854.10 L 688.70 852.40 L 695.10 850.20 L 701.40 847.60 L 710.30 842.70 L 714.50 839.70 L 722.10 833.50 L 725.30 830.30 L 728.20 826.70 L 730.90 822.80 L 733.10 818.80 L 735.00 814.60 L 736.40 810.20 L 737.40 805.80 L 738.00 801.30 L 738.10 796.80 L 737.60 792.30 L 736.60 788.00 L 735.10 783.70 L 733.00 779.70 L 730.20 775.70 L 721.90 765.10 L 707.30 747.90 L 694.50 735.20 L 687.70 729.30 L 680.50 723.90 L 673.00 719.00 L 662.40 718.90 L 649.20 720.20 L 617.60 725.80 L 609.80 726.90 Z M 378.10 841.80 L 378.40 844.30 L 379.10 846.40 L 380.20 848.20 L 383.20 851.20 L 388.10 854.00 L 397.50 858.10 L 409.90 862.40 L 422.50 866.20 L 435.20 869.50 L 448.10 872.30 L 461.10 874.70 L 474.20 876.50 L 487.30 877.80 L 500.50 878.60 L 513.70 878.90 L 526.90 878.60 L 540.00 877.90 L 553.20 876.60 L 566.30 874.80 L 579.20 872.40 L 592.10 869.60 L 604.80 866.20 L 619.30 862.00 L 626.40 859.60 L 633.40 856.80 L 637.90 854.60 L 642.10 852.10 L 646.20 849.20 L 646.70 842.20 L 646.90 835.30 L 646.60 828.60 L 645.80 822.00 L 644.30 813.20 L 642.10 804.50 L 639.30 796.00 L 636.00 787.70 L 632.30 779.50 L 628.10 771.50 L 618.60 756.00 L 613.40 748.50 L 605.20 737.70 L 596.80 727.30 L 579.20 729.40 L 561.60 731.00 L 544.00 732.10 L 526.30 732.80 L 508.60 733.00 L 490.90 732.70 L 473.30 732.00 L 455.70 730.80 L 438.10 729.20 L 420.50 727.10 L 408.20 743.80 L 402.40 752.70 L 397.00 761.80 L 392.10 771.10 L 387.70 780.60 L 384.80 787.90 L 382.40 795.30 L 380.30 802.80 L 378.80 810.40 L 377.70 818.10 L 377.30 825.90 L 377.40 833.80 L 378.10 841.80 Z" fill="#060600" fill-rule="nonzero" node-id="26" stroke="none" target-height="560.4" target-width="808.5" target-x="107" target-y="342.8"></path><path d="M 302.00 529.80 L 304.50 527.00 L 307.20 524.80 L 309.90 523.00 L 312.70 521.60 L 316.80 520.20 L 320.90 519.40 L 325.30 519.10 L 334.10 519.70 L 345.10 522.30 L 351.40 524.30 L 349.70 529.60 L 348.40 534.90 L 347.60 540.30 L 347.20 551.30 L 347.60 556.90 L 351.50 559.40 L 355.40 561.30 L 359.30 562.60 L 363.30 563.40 L 367.40 563.80 L 371.50 563.70 L 375.60 563.20 L 379.70 562.20 L 385.00 560.30 L 390.10 557.90 L 395.20 554.80 L 402.40 568.70 L 399.20 573.00 L 395.80 577.00 L 392.10 580.70 L 388.10 584.00 L 383.80 587.10 L 374.70 592.20 L 364.90 595.90 L 354.70 598.20 L 349.50 598.80 L 339.00 598.90 L 328.70 597.50 L 323.60 596.30 L 318.70 594.60 L 313.90 592.50 L 309.20 590.00 L 305.20 587.30 L 301.70 584.20 L 298.60 580.70 L 296.00 576.80 L 293.80 572.70 L 292.10 568.30 L 291.00 563.80 L 290.40 559.20 L 290.30 554.60 L 290.70 550.00 L 291.80 545.50 L 293.40 541.20 L 296.90 535.20 L 302.00 529.80 Z" fill="#fdfdfa" fill-rule="nonzero" node-id="28" stroke="none" target-height="79.80005" target-width="112.100006" target-x="290.3" target-y="519.1"></path><path d="M 676.80 524.30 L 683.10 522.10 L 694.20 519.40 L 703.10 518.60 L 707.50 518.80 L 711.70 519.70 L 715.70 521.00 L 718.60 522.50 L 721.30 524.30 L 723.90 526.70 L 729.30 532.80 L 731.60 536.20 L 733.40 539.70 L 734.80 543.30 L 735.70 547.00 L 736.20 550.80 L 736.20 554.60 L 735.90 558.50 L 734.80 563.60 L 733.20 568.60 L 730.90 573.40 L 728.10 578.00 L 724.80 582.20 L 721.10 586.00 L 718.00 588.60 L 711.30 592.80 L 707.60 594.40 L 696.00 597.00 L 684.10 598.10 L 678.00 598.10 L 672.10 597.70 L 666.20 596.90 L 660.30 595.70 L 654.60 594.00 L 649.10 592.00 L 643.70 589.50 L 638.60 586.60 L 633.70 583.30 L 629.20 579.50 L 624.90 575.20 L 621.00 570.40 L 633.80 553.70 L 642.70 559.70 L 647.60 562.20 L 652.60 564.00 L 656.10 564.80 L 659.50 565.20 L 663.00 565.00 L 666.30 564.40 L 669.60 563.10 L 673.00 561.00 L 675.20 559.30 L 676.90 557.40 L 679.30 553.40 L 680.20 550.40 L 680.60 547.30 L 680.70 543.90 L 680.20 538.90 L 676.80 524.30 Z" fill="#fcfcf9" fill-rule="nonzero" node-id="30" stroke="none" target-height="79.5" target-width="115.20001" target-x="621" target-y="518.6"></path><path d="M 222.90 653.10 L 238.30 648.30 L 269.30 639.80 L 284.90 636.10 L 305.90 631.70 L 327.00 627.70 L 348.10 624.30 L 390.70 618.50 L 412.00 616.20 L 444.00 613.20 L 476.00 610.70 L 477.70 617.90 L 479.90 625.00 L 481.50 628.30 L 483.60 631.20 L 485.30 632.90 L 487.30 634.30 L 493.50 637.50 L 497.40 639.10 L 501.40 640.20 L 505.40 640.90 L 510.80 641.30 L 516.20 641.10 L 521.50 640.20 L 526.80 638.70 L 531.80 636.80 L 536.70 634.20 L 541.30 631.20 L 545.60 627.80 L 549.60 623.80 L 544.70 610.20 L 571.90 612.30 L 599.10 614.90 L 626.30 617.80 L 653.40 621.30 L 680.40 625.30 L 707.20 630.00 L 727.30 634.00 L 747.30 638.50 L 767.10 643.40 L 798.20 652.20 L 782.20 667.10 L 776.60 671.70 L 770.80 676.10 L 764.70 680.10 L 753.00 685.20 L 741.10 689.90 L 729.10 694.00 L 704.60 701.00 L 692.20 704.00 L 673.50 707.80 L 654.60 711.10 L 616.80 716.60 L 594.10 719.00 L 571.30 720.80 L 548.50 722.00 L 525.60 722.70 L 502.70 722.90 L 479.90 722.40 L 457.00 721.40 L 434.20 719.80 L 411.40 717.60 L 388.80 714.80 L 366.20 711.40 L 343.60 707.30 L 317.50 701.50 L 304.30 698.00 L 291.40 694.10 L 282.90 691.20 L 266.30 684.30 L 258.40 680.30 L 250.60 675.80 L 243.20 670.90 L 237.80 667.00 L 227.70 658.00 L 222.90 653.10 Z" fill="#eec6a9" fill-rule="nonzero" node-id="32" stroke="none" target-height="112.70001" target-width="575.30005" target-x="222.9" target-y="610.2"></path><path d="M 476.80 611.50 L 483.80 611.60 L 491.00 611.40 L 513.00 610.00 L 524.90 610.40 L 534.10 612.10 L 538.50 613.60 L 542.80 615.60 L 547.00 618.20 L 532.50 626.40 L 524.20 630.20 L 517.20 632.20 L 513.60 632.60 L 510.00 632.60 L 502.90 631.90 L 499.90 631.30 L 494.40 628.80 L 489.50 625.10 L 486.10 621.90 L 476.80 611.50 Z" fill="#edc6a6" fill-rule="nonzero" node-id="34" stroke="none" target-height="22.599976" target-width="70.20001" target-x="476.8" target-y="610"></path><path d="M 337.90 722.30 L 339.50 720.80 L 342.80 718.90 L 345.50 718.20 L 351.30 717.90 L 360.10 718.80 L 372.40 720.50 L 409.00 727.30 L 395.90 746.50 L 389.90 756.30 L 384.30 766.40 L 379.10 776.70 L 374.50 787.30 L 371.30 795.30 L 366.20 811.90 L 364.10 820.40 L 354.10 816.60 L 344.30 812.20 L 334.80 807.40 L 325.40 802.20 L 306.90 791.10 L 310.60 795.80 L 314.50 800.10 L 318.60 804.10 L 327.80 811.00 L 332.60 814.10 L 340.20 818.30 L 348.10 822.00 L 364.10 828.70 L 360.40 856.40 L 345.80 855.30 L 338.50 854.20 L 331.30 852.60 L 324.30 850.60 L 317.60 848.00 L 312.70 845.60 L 308.00 842.90 L 303.50 839.70 L 295.40 833.00 L 292.00 829.50 L 288.80 825.60 L 286.10 821.40 L 283.80 817.00 L 282.10 812.40 L 280.90 807.60 L 280.30 802.80 L 280.30 798.00 L 280.80 794.40 L 281.70 790.90 L 283.00 787.40 L 284.80 784.00 L 289.60 776.20 L 294.70 768.80 L 300.20 761.50 L 311.90 747.60 L 318.10 741.00 L 327.90 731.40 L 337.90 722.30 Z" fill="#2a3c5e" fill-rule="nonzero" node-id="36" stroke="none" target-height="138.5" target-width="128.70001" target-x="280.3" target-y="717.9"></path><path d="M 609.80 726.90 L 617.60 725.80 L 649.20 720.20 L 662.40 718.90 L 673.00 719.00 L 680.50 723.90 L 687.70 729.30 L 694.50 735.20 L 701.00 741.40 L 713.30 754.60 L 721.90 765.10 L 733.00 779.70 L 735.10 783.70 L 736.60 788.00 L 737.60 792.30 L 738.10 796.80 L 738.00 801.30 L 737.40 805.80 L 736.40 810.20 L 735.00 814.60 L 733.10 818.80 L 730.90 822.80 L 728.20 826.70 L 725.30 830.30 L 722.10 833.50 L 714.50 839.70 L 710.30 842.70 L 701.40 847.60 L 695.10 850.20 L 688.70 852.40 L 682.10 854.10 L 675.30 855.50 L 661.80 857.30 L 661.60 854.30 L 660.90 851.00 L 658.10 840.80 L 657.60 837.60 L 657.90 833.50 L 658.50 831.70 L 659.50 830.10 L 661.00 828.70 L 663.10 827.40 L 677.10 819.80 L 683.80 815.60 L 694.40 807.90 L 701.90 800.60 L 705.20 796.60 L 708.20 792.30 L 711.00 787.60 L 702.50 793.90 L 685.00 805.90 L 676.00 811.50 L 666.70 816.60 L 657.10 821.30 L 654.70 812.70 L 648.90 796.00 L 645.40 787.90 L 640.40 777.20 L 634.90 766.80 L 629.00 756.60 L 619.60 741.60 L 609.80 726.90 Z" fill="#2a3b5c" fill-rule="nonzero" node-id="38" stroke="none" target-height="138.39996" target-width="128.29999" target-x="609.8" target-y="718.9"></path><path d="M 378.10 841.80 L 377.40 833.80 L 377.30 825.90 L 377.70 818.10 L 378.80 810.40 L 380.30 802.80 L 382.40 795.30 L 384.80 787.90 L 387.70 780.60 L 392.10 771.10 L 397.00 761.80 L 402.40 752.70 L 408.20 743.80 L 420.50 727.10 L 438.10 729.20 L 455.70 730.80 L 473.30 732.00 L 490.90 732.70 L 508.60 733.00 L 526.30 732.80 L 544.00 732.10 L 561.60 731.00 L 579.20 729.40 L 596.80 727.30 L 605.20 737.70 L 613.40 748.50 L 618.60 756.00 L 628.10 771.50 L 632.30 779.50 L 636.00 787.70 L 639.30 796.00 L 642.10 804.50 L 644.30 813.20 L 645.80 822.00 L 646.60 828.60 L 646.90 835.30 L 646.70 842.20 L 646.20 849.20 L 642.10 852.10 L 637.90 854.60 L 633.40 856.80 L 626.40 859.60 L 619.30 862.00 L 592.10 869.60 L 579.20 872.40 L 566.30 874.80 L 553.20 876.60 L 540.00 877.90 L 526.90 878.60 L 513.70 878.90 L 500.50 878.60 L 487.30 877.80 L 474.20 876.50 L 461.10 874.70 L 448.10 872.30 L 435.20 869.50 L 422.50 866.20 L 409.90 862.40 L 397.50 858.10 L 388.10 854.00 L 383.20 851.20 L 380.20 848.20 L 379.10 846.40 L 378.40 844.30 L 378.10 841.80 Z M 386.90 808.30 L 387.20 812.70 L 388.00 816.70 L 389.40 820.40 L 391.30 823.80 L 393.60 827.10 L 396.30 830.10 L 400.80 834.30 L 405.90 838.10 L 411.30 841.60 L 427.30 850.80 L 420.30 827.30 L 426.70 828.00 L 439.30 830.50 L 445.50 832.20 L 451.50 834.60 L 457.40 837.50 L 465.10 832.10 L 470.60 829.20 L 473.50 828.50 L 477.60 828.40 L 483.60 830.20 L 486.90 831.80 L 489.80 834.00 L 492.50 836.50 L 497.00 842.50 L 508.30 862.30 L 515.60 848.70 L 521.30 839.60 L 524.50 835.70 L 527.00 833.40 L 529.60 831.50 L 532.50 830.00 L 535.60 829.00 L 539.10 828.50 L 545.20 828.60 L 548.60 829.60 L 550.70 831.10 L 552.60 833.10 L 558.50 842.60 L 561.30 838.90 L 564.30 835.90 L 567.50 833.50 L 571.10 831.60 L 574.80 830.10 L 578.70 829.00 L 586.90 827.90 L 597.50 828.00 L 603.90 828.60 L 593.60 851.40 L 610.80 842.40 L 616.30 839.00 L 623.10 833.80 L 629.10 827.80 L 631.60 824.30 L 633.90 820.50 L 635.20 816.90 L 635.90 813.40 L 636.10 809.90 L 635.20 802.90 L 634.10 799.40 L 631.90 794.40 L 629.20 789.60 L 626.00 785.10 L 619.10 777.20 L 615.40 773.90 L 611.30 770.90 L 602.70 765.80 L 598.10 763.60 L 583.90 758.30 L 569.40 753.90 L 584.50 770.80 L 581.90 774.20 L 579.00 776.90 L 576.00 779.00 L 572.60 780.80 L 569.00 782.20 L 565.30 783.20 L 559.40 784.20 L 547.20 784.90 L 529.40 785.20 L 526.90 761.60 L 515.80 762.20 L 504.70 762.20 L 493.50 761.80 L 489.00 785.10 L 467.20 784.90 L 460.00 784.30 L 455.20 783.50 L 450.70 782.40 L 446.30 780.80 L 443.10 779.30 L 437.30 775.10 L 434.50 772.40 L 452.30 753.50 L 440.50 755.90 L 428.80 759.90 L 423.20 762.40 L 417.70 765.40 L 412.50 768.70 L 407.70 772.30 L 403.20 776.40 L 399.10 780.80 L 395.50 785.60 L 392.40 790.70 L 390.50 794.80 L 388.90 799.00 L 387.70 803.50 L 386.90 808.30 Z" fill="#edc32f" fill-rule="nonzero" node-id="40" stroke="none" target-height="151.80005" target-width="269.60004" target-x="377.3" target-y="727.1"></path><path d="M 386.90 808.30 L 387.70 803.50 L 388.90 799.00 L 390.50 794.80 L 392.40 790.70 L 395.50 785.60 L 399.10 780.80 L 403.20 776.40 L 407.70 772.30 L 412.50 768.70 L 417.70 765.30 L 423.20 762.40 L 428.80 759.90 L 440.50 755.90 L 452.30 753.50 L 434.50 772.40 L 437.30 775.10 L 443.10 779.30 L 446.30 780.80 L 450.70 782.40 L 455.20 783.50 L 460.00 784.30 L 467.20 784.90 L 489.00 785.10 L 493.50 761.80 L 504.70 762.20 L 515.80 762.20 L 526.90 761.60 L 529.40 785.20 L 547.20 784.90 L 559.40 784.20 L 565.30 783.20 L 569.00 782.20 L 572.60 780.80 L 576.00 779.00 L 579.10 776.90 L 581.90 774.20 L 584.50 770.80 L 569.40 753.90 L 583.90 758.30 L 598.10 763.60 L 607.10 768.20 L 615.40 773.90 L 619.10 777.20 L 622.70 781.00 L 626.00 785.10 L 629.20 789.60 L 631.90 794.40 L 634.10 799.40 L 635.20 802.90 L 636.10 809.90 L 635.90 813.40 L 635.20 816.90 L 633.90 820.50 L 631.60 824.30 L 629.10 827.80 L 626.20 830.90 L 619.80 836.50 L 616.30 839.00 L 605.10 845.50 L 593.60 851.40 L 603.90 828.60 L 597.50 828.00 L 586.90 827.90 L 578.70 829.00 L 574.80 830.10 L 571.10 831.60 L 567.50 833.50 L 564.30 835.90 L 561.30 838.90 L 558.50 842.60 L 554.20 835.40 L 550.70 831.10 L 548.60 829.60 L 547.00 828.90 L 545.20 828.60 L 539.10 828.50 L 535.60 829.00 L 532.50 830.00 L 529.60 831.50 L 527.00 833.40 L 524.50 835.70 L 521.30 839.60 L 518.30 844.00 L 508.30 862.30 L 497.00 842.50 L 492.50 836.50 L 489.80 834.00 L 486.90 831.80 L 483.60 830.20 L 477.60 828.40 L 473.50 828.50 L 470.60 829.20 L 465.10 832.10 L 457.40 837.50 L 451.50 834.60 L 445.50 832.20 L 439.30 830.50 L 426.70 828.00 L 420.30 827.30 L 427.30 850.80 L 411.30 841.60 L 405.90 838.10 L 400.80 834.30 L 396.30 830.10 L 393.60 827.10 L 391.30 823.80 L 389.40 820.40 L 388.00 816.70 L 387.20 812.70 L 386.90 808.30 Z" fill="#050606" fill-rule="nonzero" node-id="42" stroke="none" target-height="108.79999" target-width="249.19998" target-x="386.9" target-y="753.5"></path></svg>